<svg width="16" height="16" viewBox="0 0 16 16" fill="none" xmlns="http://www.w3.org/2000/svg">
<path d="M7.36668 9.96659L6.13334 11.1999C5.87334 11.4599 5.46001 11.4599 5.19334 11.2066C5.12001 11.1333 5.04668 11.0666 4.97334 10.9933C4.28668 10.2999 3.66668 9.57325 3.11334 8.81325C2.56668 8.05325 2.12668 7.29325 1.80668 6.53992C1.49334 5.77992 1.33334 5.05325 1.33334 4.35992C1.33334 3.90659 1.41334 3.47325 1.57334 3.07325C1.73334 2.66659 1.98668 2.29325 2.34001 1.95992C2.76668 1.53992 3.23334 1.33325 3.72668 1.33325C3.91334 1.33325 4.10001 1.37325 4.26668 1.45325C4.44001 1.53325 4.59334 1.65325 4.71334 1.82659L6.26001 4.00659C6.38001 4.17325 6.46668 4.32659 6.52668 4.47325C6.58668 4.61325 6.62001 4.75325 6.62001 4.87992C6.62001 5.03992 6.57334 5.19992 6.48001 5.35325C6.39334 5.50659 6.26668 5.66659 6.10668 5.82659L5.60001 6.35325C5.52668 6.42659 5.49334 6.51325 5.49334 6.61992C5.49334 6.67325 5.50001 6.71992 5.51334 6.77325C5.53334 6.82659 5.55334 6.86659 5.56668 6.90659C5.68668 7.12659 5.89334 7.41325 6.18668 7.75992C6.48668 8.10659 6.80668 8.45992 7.15334 8.81325C7.22001 8.87992 7.29334 8.94659 7.36001 9.01325C7.62668 9.27325 7.63334 9.69992 7.36668 9.96659Z" fill="#D1D5DB"/>
<path d="M14.6467 12.2201C14.6467 12.4068 14.6133 12.6001 14.5467 12.7868C14.5267 12.8401 14.5067 12.8934 14.48 12.9468C14.3667 13.1868 14.22 13.4134 14.0267 13.6268C13.7 13.9868 13.34 14.2468 12.9333 14.4134C12.9267 14.4134 12.92 14.4201 12.9133 14.4201C12.52 14.5801 12.0933 14.6668 11.6333 14.6668C10.9533 14.6668 10.2267 14.5068 9.45999 14.1801C8.69333 13.8534 7.92666 13.4134 7.16666 12.8601C6.90666 12.6668 6.64666 12.4734 6.39999 12.2668L8.57999 10.0868C8.76666 10.2268 8.93333 10.3334 9.07333 10.4068C9.10666 10.4201 9.14666 10.4401 9.19333 10.4601C9.24666 10.4801 9.29999 10.4868 9.35999 10.4868C9.47333 10.4868 9.55999 10.4468 9.63333 10.3734L10.14 9.87344C10.3067 9.70677 10.4667 9.58011 10.62 9.50011C10.7733 9.40677 10.9267 9.36011 11.0933 9.36011C11.22 9.36011 11.3533 9.38677 11.5 9.44677C11.6467 9.50677 11.8 9.59344 11.9667 9.70677L14.1733 11.2734C14.3467 11.3934 14.4667 11.5334 14.54 11.7001C14.6067 11.8668 14.6467 12.0334 14.6467 12.2201Z" fill="#D1D5DB"/>
</svg>
