<svg width="46" height="46" viewBox="0 0 46 46" fill="none" xmlns="http://www.w3.org/2000/svg">
<rect width="46" height="46" rx="23" fill="#EEF6F1"/>
<path d="M28 14.5H18C15 14.5 13 16 13 19.5V26.5C13 30 15 31.5 18 31.5H28C31 31.5 33 30 33 26.5V19.5C33 16 31 14.5 28 14.5ZM28.47 20.59L25.34 23.09C24.68 23.62 23.84 23.88 23 23.88C22.16 23.88 21.31 23.62 20.66 23.09L17.53 20.59C17.21 20.33 17.16 19.85 17.41 19.53C17.67 19.21 18.14 19.15 18.46 19.41L21.59 21.91C22.35 22.52 23.64 22.52 24.4 21.91L27.53 19.41C27.85 19.15 28.33 19.2 28.58 19.53C28.84 19.85 28.79 20.33 28.47 20.59Z" fill="#077330"/>
</svg>
