<svg width="72" height="72" viewBox="0 0 72 72" fill="none" xmlns="http://www.w3.org/2000/svg">
<rect width="72" height="72" rx="4" fill="#EEF6F1"/>
<path d="M41 27.5H31C28 27.5 26 29 26 32.5V39.5C26 43 28 44.5 31 44.5H41C44 44.5 46 43 46 39.5V32.5C46 29 44 27.5 41 27.5ZM41.47 33.59L38.34 36.09C37.68 36.62 36.84 36.88 36 36.88C35.16 36.88 34.31 36.62 33.66 36.09L30.53 33.59C30.21 33.33 30.16 32.85 30.41 32.53C30.67 32.21 31.14 32.15 31.46 32.41L34.59 34.91C35.35 35.52 36.64 35.52 37.4 34.91L40.53 32.41C40.85 32.15 41.33 32.2 41.58 32.53C41.84 32.85 41.79 33.33 41.47 33.59Z" fill="#077330"/>
</svg>
