<svg width="46" height="46" viewBox="0 0 46 46" fill="none" xmlns="http://www.w3.org/2000/svg">
<rect width="46" height="46" rx="23" fill="#077330"/>
<path d="M22.05 25.95L20.2 27.8C19.81 28.19 19.19 28.19 18.79 27.81C18.68 27.7 18.57 27.6 18.46 27.49C17.43 26.45 16.5 25.36 15.67 24.22C14.85 23.08 14.19 21.94 13.71 20.81C13.24 19.67 13 18.58 13 17.54C13 16.86 13.12 16.21 13.36 15.61C13.6 15 13.98 14.44 14.51 13.94C15.15 13.31 15.85 13 16.59 13C16.87 13 17.15 13.06 17.4 13.18C17.66 13.3 17.89 13.48 18.07 13.74L20.39 17.01C20.57 17.26 20.7 17.49 20.79 17.71C20.88 17.92 20.93 18.13 20.93 18.32C20.93 18.56 20.86 18.8 20.72 19.03C20.59 19.26 20.4 19.5 20.16 19.74L19.4 20.53C19.29 20.64 19.24 20.77 19.24 20.93C19.24 21.01 19.25 21.08 19.27 21.16C19.3 21.24 19.33 21.3 19.35 21.36C19.53 21.69 19.84 22.12 20.28 22.64C20.73 23.16 21.21 23.69 21.73 24.22C21.83 24.32 21.94 24.42 22.04 24.52C22.44 24.91 22.45 25.55 22.05 25.95Z" fill="#EEF6F1"/>
<path d="M32.97 29.33C32.97 29.61 32.92 29.9 32.82 30.18C32.79 30.26 32.76 30.34 32.72 30.42C32.55 30.78 32.33 31.12 32.04 31.44C31.55 31.98 31.01 32.37 30.4 32.62C30.39 32.62 30.38 32.63 30.37 32.63C29.78 32.87 29.14 33 28.45 33C27.43 33 26.34 32.76 25.19 32.27C24.04 31.78 22.89 31.12 21.75 30.29C21.36 30 20.97 29.71 20.6 29.4L23.87 26.13C24.15 26.34 24.4 26.5 24.61 26.61C24.66 26.63 24.72 26.66 24.79 26.69C24.87 26.72 24.95 26.73 25.04 26.73C25.21 26.73 25.34 26.67 25.45 26.56L26.21 25.81C26.46 25.56 26.7 25.37 26.93 25.25C27.16 25.11 27.39 25.04 27.64 25.04C27.83 25.04 28.03 25.08 28.25 25.17C28.47 25.26 28.7 25.39 28.95 25.56L32.26 27.91C32.52 28.09 32.7 28.3 32.81 28.55C32.91 28.8 32.97 29.05 32.97 29.33Z" fill="#EEF6F1"/>
</svg>
