<svg width="12" height="14" viewBox="0 0 12 14" fill="none" xmlns="http://www.w3.org/2000/svg">
<path d="M11.75 4.46667C11.05 1.38667 8.36336 0 6.00336 0C6.00336 0 6.00336 0 5.99669 0C3.64336 0 0.950026 1.38 0.250026 4.46C-0.529974 7.9 1.57669 10.8133 3.48336 12.6467C4.19003 13.3267 5.09669 13.6667 6.00336 13.6667C6.91003 13.6667 7.81669 13.3267 8.51669 12.6467C10.4234 10.8133 12.53 7.90667 11.75 4.46667ZM6.00336 7.80667C4.84336 7.80667 3.90336 6.86667 3.90336 5.70667C3.90336 4.54667 4.84336 3.60667 6.00336 3.60667C7.16336 3.60667 8.10336 4.54667 8.10336 5.70667C8.10336 6.86667 7.16336 7.80667 6.00336 7.80667Z" fill="#D1D5DB"/>
</svg>
