<svg width="32" height="32" viewBox="0 0 32 32" fill="none" xmlns="http://www.w3.org/2000/svg">
<g clip-path="url(#clip0_147_3086)">
<path d="M13.6873 2.50048C9.96853 2.79423 6.54978 4.41298 4.03103 7.07548C1.98728 9.23797 0.749776 11.7067 0.174776 14.7505C-0.00647378 15.7317 -0.0502238 18.0005 0.0935262 19.1255C0.506026 22.3817 1.96853 25.3442 4.31228 27.688C6.51228 29.888 9.14353 31.2567 12.2498 31.8192C13.2873 32.0067 15.4873 32.0567 16.6123 31.913C18.7998 31.6317 21.006 30.8317 22.7748 29.6692C26.4998 27.2255 28.8685 23.4192 29.4435 18.9692C29.5373 18.2255 29.5373 16.313 29.4435 15.5317C29.0935 12.6942 27.9123 9.93797 26.1248 7.79423C25.8435 7.46297 25.5998 7.18797 25.5748 7.18797C25.5498 7.18797 24.8935 7.82547 24.1123 8.60672L22.6935 10.0317L23.0998 10.5317C25.3373 13.2817 26.0498 17.0817 24.9685 20.4942C23.9498 23.7192 21.3935 26.313 18.1873 27.4005C16.0373 28.1255 13.5998 28.138 11.4248 27.438C10.631 27.1817 9.21853 26.463 8.49978 25.9567C7.74353 25.413 6.58728 24.2567 6.04353 23.5005C5.53728 22.7817 4.81853 21.3692 4.56228 20.5755C4.16228 19.338 4.09978 18.863 4.09978 17.2505C4.09353 15.9505 4.11228 15.7067 4.23728 15.1255C4.81228 12.488 6.24353 10.2317 8.33103 8.66922C12.2435 5.74422 17.706 5.83797 21.4685 8.90047L21.9685 9.30672L23.406 7.86922L24.8435 6.43172L24.531 6.15673C22.7873 4.58798 20.406 3.36923 18.0623 2.83798C16.6935 2.53173 14.981 2.40048 13.6873 2.50048Z" fill="#EC4040"/>
<path d="M13.7126 10.7195C11.3813 11.0758 9.36257 12.732 8.55632 14.9383C7.81882 16.9633 8.07507 19.1258 9.26257 20.9383C9.64382 21.5195 10.5063 22.3695 11.1376 22.7758C11.7876 23.2008 12.3876 23.4633 13.1813 23.6695C13.7001 23.807 13.9126 23.832 14.7501 23.832C15.5876 23.832 15.8001 23.807 16.3188 23.6695C17.5376 23.3508 18.4376 22.857 19.2938 22.0445C20.1251 21.2508 20.6563 20.4133 21.0251 19.3133C21.6938 17.3195 21.3626 15.1383 20.1251 13.382L19.8001 12.9195L18.3626 14.357L16.9251 15.7945L17.0876 16.107C17.8626 17.6445 16.8876 19.5133 15.1438 19.8195C13.4813 20.1133 11.8876 18.5195 12.1813 16.857C12.4313 15.4258 13.7938 14.4258 15.1626 14.682C15.3938 14.7195 15.7188 14.8258 15.8938 14.9133L16.2063 15.0758L17.6376 13.6445L19.0688 12.2133L18.6876 11.932C17.2376 10.8758 15.4813 10.4445 13.7126 10.7195Z" fill="#EC4040"/>
<path d="M13.9743 14.8059C13.2181 15.0559 12.5806 15.6684 12.3306 16.3934C12.1681 16.8621 12.1806 17.7309 12.3618 18.1871C12.8431 19.4059 14.2306 20.0746 15.4806 19.6996C16.9618 19.2496 17.7056 17.6246 17.0868 16.1996L16.9181 15.8059L15.9743 16.7434C15.3993 17.3121 14.9618 17.6934 14.8556 17.7184C14.5368 17.7996 14.1993 17.4559 14.2806 17.1371C14.3056 17.0371 14.7118 16.5746 15.2556 16.0246L16.1931 15.0809L15.8056 14.9059C15.2806 14.6684 14.5118 14.6309 13.9743 14.8059Z" fill="#6B6B6B"/>
<path d="M24.125 7.16875L23.4688 7.84375L24.1438 7.1875C24.5125 6.83125 24.8125 6.525 24.8125 6.51875C24.8125 6.46875 24.7313 6.55 24.125 7.16875Z" fill="#C16B6B"/>
<path d="M24.0625 8.60625L22.6562 10.0312L24.0813 8.625C24.8625 7.85 25.5 7.2125 25.5 7.20625C25.5 7.15625 25.3688 7.2875 24.0625 8.60625Z" fill="#C16B6B"/>
<path d="M18.2812 14.3875L16.8438 15.8438L18.3 14.4063C19.0938 13.6188 19.75 12.9625 19.75 12.9563C19.75 12.9063 19.6188 13.0375 18.2812 14.3875Z" fill="#C16B6B"/>
<path d="M14.5822 6.54336C14.6759 6.55586 14.8259 6.55586 14.9259 6.54336C15.0197 6.53086 14.9384 6.51836 14.7509 6.51836C14.5634 6.51836 14.4822 6.53086 14.5822 6.54336Z" fill="#EC6B6B"/>
<path d="M22.7191 8.5625C22.3066 8.975 21.9879 9.3125 22.0004 9.3125C22.0191 9.3125 22.3691 8.975 22.7816 8.5625C23.1941 8.15 23.5129 7.8125 23.5004 7.8125C23.4816 7.8125 23.1316 8.15 22.7191 8.5625Z" fill="#EC6B6B"/>
<path d="M17.625 13.6687L16.2188 15.0938L17.6437 13.6875C18.9625 12.3812 19.0937 12.25 19.0437 12.25C19.0375 12.25 18.4 12.8875 17.625 13.6687Z" fill="#EC6B6B"/>
<path d="M10.025 12.575L9.84375 12.7812L10.05 12.6C10.2375 12.425 10.2812 12.375 10.2312 12.375C10.2187 12.375 10.1312 12.4688 10.025 12.575Z" fill="#EC6B6B"/>
<path d="M25.457 17.2501C25.457 17.4376 25.4695 17.5188 25.482 17.4188C25.4945 17.3251 25.4945 17.1751 25.482 17.0751C25.4695 16.9813 25.457 17.0626 25.457 17.2501Z" fill="#EC6B6B"/>
<path d="M19.4 21.95L19.2188 22.1562L19.425 21.975C19.6125 21.8 19.6562 21.75 19.6062 21.75C19.5937 21.75 19.5062 21.8438 19.4 21.95Z" fill="#EC6B6B"/>
<path d="M7.25 24.8938C7.25 24.9063 7.34375 24.9938 7.45625 25.1L7.65625 25.2812L7.475 25.075C7.3 24.8875 7.25 24.8438 7.25 24.8938Z" fill="#EC6B6B"/>
<path d="M26.7507 1.75627C25.807 2.71252 25.0195 3.55627 24.9945 3.63752C24.9757 3.71877 24.9632 3.83752 24.9757 3.90627C25.0007 4.03752 25.0695 5.06877 25.0945 5.59377C25.1007 5.76252 25.1132 5.96252 25.1195 6.03127C25.1257 6.11877 25.657 5.62502 27.0632 4.21877C28.3132 2.96877 28.9882 2.25002 28.9695 2.18752C28.957 2.13752 28.9257 1.80002 28.907 1.43752C28.8882 1.07502 28.8632 0.637525 28.8507 0.462524C28.807 -0.287476 28.7257 -0.237475 26.7507 1.75627Z" fill="#154096"/>
<path d="M27.7749 4.9434C26.3811 6.3434 25.8811 6.87465 25.9686 6.8809C26.1874 6.8934 26.6999 6.92465 27.4311 6.9684C27.8186 6.98715 28.1561 7.01215 28.1811 7.0184C28.4124 7.0809 28.6874 6.84965 30.2999 5.23715C31.2311 4.2934 31.9999 3.48715 31.9999 3.43715C31.9999 3.2434 31.8811 3.1684 31.5561 3.1559C31.0374 3.12465 30.0499 3.0559 29.8686 3.0309C29.7311 3.01215 29.4374 3.2809 27.7749 4.9434Z" fill="#154096"/>
<path d="M26.7812 1.7L25.1562 3.34375L26.8 1.71875C28.3187 0.2125 28.4687 0.0625 28.4187 0.0625C28.4125 0.0625 27.675 0.8 26.7812 1.7Z" fill="#156B96"/>
<path d="M27.0312 4.2625L25.1562 6.15625L27.05 4.28125C28.0875 3.25 28.9375 2.4 28.9375 2.39375C28.9375 2.34375 28.775 2.50625 27.0312 4.2625Z" fill="#406BC1"/>
<path d="M27.7188 4.95L25.8438 6.84375L27.7375 4.96875C28.775 3.9375 29.625 3.0875 29.625 3.08125C29.625 3.03125 29.4625 3.19375 27.7188 4.95Z" fill="#4096C1"/>
<path d="M22.5187 8.81845C15.2312 16.1184 14.3437 17.0309 14.3249 17.2184C14.3124 17.3684 14.3437 17.4684 14.4312 17.5559C14.5624 17.6872 14.8374 17.7247 14.9812 17.6372C15.0187 17.6122 18.7249 13.9247 23.2124 9.4497C30.7437 1.9372 31.3749 1.29345 31.3749 1.0997C31.3749 0.837198 31.1562 0.624697 30.8874 0.624697C30.7124 0.624697 29.8999 1.41845 22.5187 8.81845Z" fill="#C1C1C1"/>
<path d="M13.6571 6.63087C9.7821 7.03712 6.4321 9.52462 4.91335 13.1184C3.9071 15.5059 3.8196 18.2496 4.6696 20.7121C6.7571 26.7621 13.6509 29.6309 19.4071 26.8434C24.2196 24.5121 26.5634 18.9621 24.8759 13.8559C24.4946 12.6996 23.6884 11.2809 22.8634 10.3059L22.6321 10.0309L21.2134 11.4434L19.7946 12.8621L20.1384 13.3309C21.5634 15.2871 21.8134 17.8684 20.7821 20.0434C20.4134 20.8184 20.1259 21.2496 19.5446 21.8559C17.5196 23.9684 14.4259 24.4996 11.7821 23.1871C7.78835 21.2121 6.85085 15.8871 9.9321 12.6621C12.2571 10.2371 15.9759 9.89337 18.6696 11.8621L19.1384 12.2059L20.5571 10.7871L21.9696 9.36837L21.6946 9.13712C20.3634 8.00587 18.6259 7.14962 16.9884 6.81212C15.8259 6.57462 14.7571 6.51837 13.6571 6.63087Z" fill="#ECECEC"/>
</g>
<defs>
<clipPath id="clip0_147_3086">
<rect width="32" height="32" fill="white"/>
</clipPath>
</defs>
</svg>
