<svg width="72" height="72" viewBox="0 0 72 72" fill="none" xmlns="http://www.w3.org/2000/svg">
<rect width="72" height="72" rx="4" fill="#EEF6F1"/>
<path d="M44.62 32.45C43.57 27.83 39.54 25.75 36 25.75C36 25.75 36 25.75 35.99 25.75C32.46 25.75 28.42 27.82 27.37 32.44C26.2 37.6 29.36 41.97 32.22 44.72C33.28 45.74 34.64 46.25 36 46.25C37.36 46.25 38.72 45.74 39.77 44.72C42.63 41.97 45.79 37.61 44.62 32.45ZM36 37.46C34.26 37.46 32.85 36.05 32.85 34.31C32.85 32.57 34.26 31.16 36 31.16C37.74 31.16 39.15 32.57 39.15 34.31C39.15 36.05 37.74 37.46 36 37.46Z" fill="#077330"/>
</svg>
