<svg width="73" height="72" viewBox="0 0 73 72" fill="none" xmlns="http://www.w3.org/2000/svg">
<rect x="0.5" width="72" height="72" rx="4" fill="#EEF6F1"/>
<path d="M35.55 38.95L33.7 40.8C33.31 41.19 32.69 41.19 32.29 40.81C32.18 40.7 32.07 40.6 31.96 40.49C30.93 39.45 30 38.36 29.17 37.22C28.35 36.08 27.69 34.94 27.21 33.81C26.74 32.67 26.5 31.58 26.5 30.54C26.5 29.86 26.62 29.21 26.86 28.61C27.1 28 27.48 27.44 28.01 26.94C28.65 26.31 29.35 26 30.09 26C30.37 26 30.65 26.06 30.9 26.18C31.16 26.3 31.39 26.48 31.57 26.74L33.89 30.01C34.07 30.26 34.2 30.49 34.29 30.71C34.38 30.92 34.43 31.13 34.43 31.32C34.43 31.56 34.36 31.8 34.22 32.03C34.09 32.26 33.9 32.5 33.66 32.74L32.9 33.53C32.79 33.64 32.74 33.77 32.74 33.93C32.74 34.01 32.75 34.08 32.77 34.16C32.8 34.24 32.83 34.3 32.85 34.36C33.03 34.69 33.34 35.12 33.78 35.64C34.23 36.16 34.71 36.69 35.23 37.22C35.33 37.32 35.44 37.42 35.54 37.52C35.94 37.91 35.95 38.55 35.55 38.95Z" fill="#077330"/>
<path d="M46.47 42.33C46.47 42.61 46.42 42.9 46.32 43.18C46.29 43.26 46.26 43.34 46.22 43.42C46.05 43.78 45.83 44.12 45.54 44.44C45.05 44.98 44.51 45.37 43.9 45.62C43.89 45.62 43.88 45.63 43.87 45.63C43.28 45.87 42.64 46 41.95 46C40.93 46 39.84 45.76 38.69 45.27C37.54 44.78 36.39 44.12 35.25 43.29C34.86 43 34.47 42.71 34.1 42.4L37.37 39.13C37.65 39.34 37.9 39.5 38.11 39.61C38.16 39.63 38.22 39.66 38.29 39.69C38.37 39.72 38.45 39.73 38.54 39.73C38.71 39.73 38.84 39.67 38.95 39.56L39.71 38.81C39.96 38.56 40.2 38.37 40.43 38.25C40.66 38.11 40.89 38.04 41.14 38.04C41.33 38.04 41.53 38.08 41.75 38.17C41.97 38.26 42.2 38.39 42.45 38.56L45.76 40.91C46.02 41.09 46.2 41.3 46.31 41.55C46.41 41.8 46.47 42.05 46.47 42.33Z" fill="#077330"/>
</svg>
