<svg width="16" height="16" viewBox="0 0 16 16" fill="none" xmlns="http://www.w3.org/2000/svg">
<path d="M11.3333 2.33325H4.66668C2.66668 2.33325 1.33334 3.33325 1.33334 5.66659V10.3333C1.33334 12.6666 2.66668 13.6666 4.66668 13.6666H11.3333C13.3333 13.6666 14.6667 12.6666 14.6667 10.3333V5.66659C14.6667 3.33325 13.3333 2.33325 11.3333 2.33325ZM11.6467 6.39325L9.56001 8.05992C9.12001 8.41325 8.56001 8.58659 8.00001 8.58659C7.44001 8.58659 6.87334 8.41325 6.44001 8.05992L4.35334 6.39325C4.14001 6.21992 4.10668 5.89992 4.27334 5.68659C4.44668 5.47325 4.76001 5.43325 4.97334 5.60659L7.06001 7.27325C7.56668 7.67992 8.42668 7.67992 8.93334 7.27325L11.02 5.60659C11.2333 5.43325 11.5533 5.46659 11.72 5.68659C11.8933 5.89992 11.86 6.21992 11.6467 6.39325Z" fill="#D1D5DB"/>
</svg>
