<svg width="32" height="32" viewBox="0 0 32 32" fill="none" xmlns="http://www.w3.org/2000/svg">
<path d="M16.0625 16V18.75H16.3C17.0875 18.75 18.1062 18.0813 18.5 17.3125C18.925 16.4813 18.925 15.5187 18.5 14.6875C18.1062 13.9187 17.0875 13.25 16.3 13.25H16.0625V16Z" fill="#156B96"/>
<path d="M15.782 13.2316C15.1945 13.2879 14.532 13.6004 14.1008 14.0379C13.5695 14.5629 13.3008 15.2254 13.3008 16.0004C13.3008 17.4879 14.3695 18.6316 15.8758 18.7691C16.0633 18.7879 16.182 18.7879 16.1445 18.7691C16.082 18.7441 16.0633 18.1316 16.0633 16.0004C16.0633 13.8691 16.082 13.2566 16.1445 13.2316C16.2258 13.1941 16.182 13.1941 15.782 13.2316Z" fill="#156BC1"/>
<path d="M14.1875 5.81204C12.5563 6.06204 11.1875 6.5183 9.55 7.34954C6.66875 8.8058 3.75 11.1745 1.2375 14.0933C0.11875 15.3995 0 15.5808 0 15.9995C0 16.4183 0.11875 16.6058 1.2375 17.9058C5.25 22.562 9.93125 25.5495 14.2188 26.1933C15.1375 26.3245 16.7 26.3558 17.5625 26.2495C20.6313 25.8683 23.725 24.3808 26.9375 21.737C28.4937 20.4558 31.4188 17.3558 31.8938 16.487C32.0312 16.2245 32.0312 15.7745 31.8938 15.512C31.6375 15.0495 30.1938 13.3808 29.0312 12.212C25.2375 8.39955 21.3687 6.22454 17.5625 5.74954C16.7437 5.64955 15.0188 5.6808 14.1875 5.81204ZM17.7 9.6183C20.0375 10.2558 21.8125 12.037 22.45 14.3933C22.5688 14.8308 22.5875 15.062 22.5875 15.9995C22.5875 16.937 22.5688 17.1683 22.45 17.6058C21.8062 19.9745 20.0375 21.7433 17.6688 22.387C17.2313 22.5058 17 22.5245 16.0625 22.5245C15.125 22.5245 14.8938 22.5058 14.4563 22.387C12.0813 21.7433 10.3188 19.9808 9.675 17.6058C9.55625 17.1683 9.5375 16.937 9.5375 15.9995C9.5375 15.062 9.55625 14.8308 9.675 14.3933C10.3125 12.0308 12.1375 10.2058 14.425 9.63079C15.1313 9.44954 15.1938 9.44329 16.25 9.46829C16.9813 9.48705 17.3375 9.52455 17.7 9.6183Z" fill="#1596EC"/>
<path d="M16.0625 11.2938V13.175L16.3938 13.2C17.375 13.2938 18.3188 14.025 18.6938 14.9875C18.9 15.5188 18.9313 16.3063 18.7563 16.8313C18.5187 17.5313 18.0125 18.1688 17.4688 18.45C17.0813 18.65 16.5625 18.8125 16.3 18.8125H16.0625V20.6938V22.5813L16.575 22.5313C18.325 22.3813 20.05 21.475 21.1375 20.1313C21.675 19.4625 22.2 18.425 22.4188 17.5938C22.5625 17.05 22.5813 16.8438 22.5813 16C22.5813 14.7875 22.4313 14.1313 21.9062 13.0875C20.875 11.0313 18.8688 9.6688 16.575 9.4688L16.0625 9.4188V11.2938Z" fill="#C1C1EC"/>
<path d="M15.4566 9.50586C14.7379 9.56836 14.2441 9.69336 13.5629 9.98711C11.7566 10.7496 10.4754 12.1371 9.85039 14.0121C9.64414 14.6246 9.55664 15.2121 9.55664 15.9996C9.55664 16.7871 9.64414 17.3746 9.85039 17.9871C10.4754 19.8621 11.7566 21.2496 13.5629 22.0121C14.2566 22.3121 14.7379 22.4309 15.4691 22.4871L16.0629 22.5371V20.6809V18.8309L15.6879 18.7934C14.8066 18.7184 13.9254 18.0684 13.5066 17.1934C13.2879 16.7309 13.2816 16.6934 13.2816 15.9996C13.2816 15.3059 13.2879 15.2684 13.5066 14.8059C13.9254 13.9309 14.8066 13.2809 15.6879 13.2059L16.0629 13.1684V11.3059C16.0629 10.2746 16.0566 9.44336 16.0504 9.44336C16.0379 9.44961 15.7754 9.47461 15.4566 9.50586Z" fill="#ECECEC"/>
</svg>
